<svg width="370" height="102" viewBox="0 0 370 102" fill="none" xmlns="http://www.w3.org/2000/svg">
<path d="M70.752 69.296L83.168 83.12C73.952 92.208 62.048 96.304 48.736 96.304C14.56 96.304 0.992 74.288 0.864 49.84C0.736 26.672 15.84 2.352 48.736 2.352C61.024 2.352 72.416 7.088 81.632 16.176L69.088 28.592C63.712 23.344 55.904 21.168 48.736 21.168C28.384 21.168 20.448 36.912 20.576 49.968C20.704 63.024 27.744 77.872 48.736 77.872C55.904 77.872 65.376 74.672 70.752 69.296ZM93.189 4.52799H111.493V94H93.189V4.52799ZM145.74 30.64V94H127.308V30.64H145.74ZM126.028 14C126.028 27.824 147.02 27.824 147.02 14C147.02 0.175995 126.028 0.175995 126.028 14ZM225.436 94H206.876V60.592C206.876 50.864 202.652 45.872 193.82 45.872C185.244 45.744 179.484 53.168 179.484 61.36V94H161.308V30.768H177.948L178.588 38.832C184.22 31.536 191.388 29.104 199.068 29.232C213.276 29.232 225.436 35.888 225.436 60.464V94ZM258.615 30.64V94H240.183V30.64H258.615ZM238.903 14C238.903 27.824 259.895 27.824 259.895 14C259.895 0.175995 238.903 0.175995 238.903 14ZM366.876 49.072C366.876 60.208 364.06 69.552 359.068 76.976L369.436 87.472L355.484 101.296L344.604 90.16C337.308 94 328.604 96.048 318.748 96.048C290.076 96.048 270.364 78.64 270.364 49.072C270.364 19.504 290.076 2.09599 318.748 2.09599C347.42 2.09599 366.876 19.504 366.876 49.072ZM347.292 49.072C347.292 32.304 336.156 20.272 318.748 20.272C301.724 20.272 289.948 32.432 289.948 49.072C289.948 66.224 301.724 77.872 318.748 77.872C336.156 77.872 347.932 65.072 347.292 49.072Z" fill="white"/>
</svg>
